<?xml version="1.0" standalone="no"?>
<!DOCTYPE svg PUBLIC "-//W3C//DTD SVG 20010904//EN"
 "http://www.w3.org/TR/2001/REC-SVG-20010904/DTD/svg10.dtd">
<svg version="1.0" xmlns="http://www.w3.org/2000/svg"
 width="591.000000pt" height="590.000000pt" viewBox="0 0 591.000000 590.000000"
 preserveAspectRatio="xMidYMid meet">

<g transform="translate(0.000000,590.000000) scale(0.100000,-0.100000)"
fill="#000000" stroke="none">
<path d="M2700 5889 c-396 -33 -828 -163 -1174 -356 -1178 -655 -1763 -2003
-1435 -3308 50 -197 150 -474 176 -482 5 -2 15 21 22 52 24 107 63 212 122
332 l61 122 -26 108 c-44 186 -58 298 -63 525 -8 308 19 525 98 798 188 647
652 1215 1260 1544 168 90 414 182 619 230 212 50 316 61 595 61 278 0 360 -9
589 -62 l108 -25 112 56 c117 58 246 106 340 126 31 6 56 16 56 21 0 12 -64
40 -220 96 -395 141 -818 196 -1240 162z"/>
<path d="M4205 5350 c-208 -44 -368 -120 -530 -251 -82 -67 -812 -796 -804
-803 3 -3 93 -7 200 -9 135 -3 218 -9 273 -21 l79 -17 266 263 c165 164 291
280 331 306 137 89 296 129 468 119 335 -19 614 -255 693 -584 29 -121 23
-292 -15 -408 -59 -182 -46 -168 -845 -967 -779 -780 -791 -790 -949 -848
-322 -117 -680 -9 -884 268 -51 68 -104 182 -122 262 -8 34 -17 65 -21 68 -3
3 -83 -71 -177 -165 l-170 -170 30 -65 c110 -230 344 -463 567 -563 184 -83
311 -109 520 -109 130 0 177 4 250 22 168 42 306 103 435 192 53 37 299 276
826 804 807 808 798 797 895 1001 74 155 100 268 106 460 6 181 -7 276 -58
429 -125 376 -443 669 -836 773 -136 35 -393 42 -528 13z"/>
<path d="M2875 3975 c-181 -28 -337 -89 -494 -191 -72 -48 -205 -176 -842
-813 -559 -560 -767 -774 -801 -826 -102 -155 -165 -313 -194 -480 -24 -136
-15 -369 19 -498 112 -425 440 -753 864 -863 76 -20 131 -27 248 -31 229 -8
395 27 579 119 162 81 216 127 629 537 218 217 396 400 394 406 -2 6 -76 12
-193 16 -117 4 -219 13 -268 23 l-78 17 -272 -268 c-296 -294 -343 -329 -504
-387 -83 -29 -94 -31 -237 -30 -136 0 -158 3 -230 27 -125 42 -218 99 -310
191 -113 112 -174 223 -211 381 -24 104 -15 284 20 390 58 181 49 170 825 948
388 390 735 730 771 756 147 109 283 155 460 155 142 0 223 -19 350 -81 82
-39 108 -59 190 -142 78 -78 104 -113 141 -186 25 -49 54 -123 63 -162 10 -40
21 -73 25 -73 3 0 82 76 175 169 l168 169 -35 73 c-59 122 -115 199 -226 310
-116 117 -234 200 -359 254 -213 93 -449 125 -667 90z"/>
<path d="M5758 3532 c-53 -109 -125 -221 -191 -299 l-45 -52 -5 -258 c-4 -200
-10 -286 -26 -382 -79 -458 -258 -859 -542 -1211 -86 -106 -274 -293 -390
-387 -288 -234 -684 -425 -1043 -502 -204 -45 -287 -53 -544 -57 l-254 -4 -46
-41 c-68 -61 -242 -172 -328 -210 -41 -18 -74 -36 -74 -40 0 -11 115 -35 275
-58 711 -103 1462 72 2060 479 166 114 302 229 460 391 374 384 616 818 749
1345 107 424 111 928 11 1362 -3 12 -9 22 -13 22 -4 -1 -28 -45 -54 -98z"/>
</g>
</svg>
